# xmcd
#
# Track frame offsets:
#	182
#	13820
#	28745
#	43857
#	58605
#	78677
#	92452
#	107695
#	125335
#	141462
#
# Disc length: 2050 seconds
#
# Revision: 1
# Processed by: cddbd v1.5.2PL0 Copyright (c) Steve Scherf et al.
# Submitted via: audiograbber 1.83.01
#
DISCID=8708000a
DTITLE=Various Artist - Country for Kids Sake
DYEAR=1995
DGENRE=Country
TTITLE0=Honky Tonk Time - Nuthin' Fancy
TTITLE1=Asheville Girl - Dixie Delux
TTITLE2=Where Will the Innocent Go - Iron Duff
TTITLE3=Rain Dance - Wild Horses
TTITLE4=Two Steppin - Burke Long
TTITLE5=Addicted To You - Lee Whitaker
TTITLE6=Who You Foolin' - The Bishop Brothers
TTITLE7=Candle In My Heart - Jackie Lunsford
TTITLE8=Best Little Girl In Texas - Garret Wreston
TTITLE9=Can't Break Me - Jackson Crossing
EXTD=Fund raiser for Big Brothers/Big Sisters Buncombe County, North Carolina
EXTT0=
EXTT1=
EXTT2=
EXTT3=
EXTT4=
EXTT5=
EXTT6=
EXTT7=
EXTT8=
EXTT9=
PLAYORDER=
